<?xml version="1.0" encoding="UTF-8"?>
<svg width="512" height="512" version="1.1" viewBox="0 0 512.00001 512.00001" xmlns="http://www.w3.org/2000/svg">
 <defs>
  <style type="text/css"/>
  <style type="text/css"/>
  <linearGradient id="c" x1="-163.06" x2="-192.62" y1="973.87" y2="870.6" gradientTransform="matrix(.8333 -.41933 .37103 .8559 24.298 -452.99)" gradientUnits="userSpaceOnUse">
   <stop stop-color="#e33a4b" offset="0"/>
   <stop stop-color="#d22436" stop-opacity=".54902" offset="1"/>
  </linearGradient>
  <linearGradient id="d" x1="284.75" x2="119.19" y1="974.63" y2="810.63" gradientTransform="matrix(.93286 0 0 .93286 29.062 -482.76)" gradientUnits="userSpaceOnUse">
   <stop stop-color="#6f0102" offset="0"/>
   <stop stop-color="#6f0102" stop-opacity="0" offset="1"/>
  </linearGradient>
 </defs>
 <circle transform="scale(-1,1)" cx="-256" cy="256" r="256" fill="#212121"/>
 <path d="m253.57 397.86a272.08 213.62 0 0 0 -160.42 41.914 256 256 0 0 0 162.85 58.737 256 256 0 0 0 160.71 -57 272.08 213.62 0 0 0 -163.14 -43.651z" fill="#fff"/>
 <path d="m132.4 289.19c23.149 122.73 92.356 192.84 218.78 173.6-38.526-70.14-0.7377-104.58 23.978-150.13l-71.303-109.35c-38.952 42.604-67.58 87.417-171.45 85.875z" fill="#212121"/>
 <path d="m139.86 287.87c25.528 112.9 81.349 182.69 198.1 165.77-36.157-65.828 6.5306-100.99 29.726-143.74l-58.582-29.381c-36.557 39.985-71.762 8.7969-169.25 7.3497z" fill="#ffb928"/>
 <path d="m155.7 294.46c31.665 108.3 64.199 159.61 167.76 152.58-36.157-65.828 10.488-102.31 33.684-145.06l-57.427-11.507c-36.557 39.985-46.531 5.4346-144.02 3.9874z" fill="#212121"/>
 <path d="m163.16 295.86c33.897 105.69 54.269 147.71 152.83 146.52-36.157-65.828 11.888-99.981 35.084-142.73l-47.433-13.114c-36.557 39.985-42.999 10.774-140.49 9.3264z" fill="url(#d)"/>
 <path d="m128.58 289.18c109.6 66.91 220.33 68.999 327.76 50.445-184.87-128.93-229.49-67.737-327.76-50.445z" fill="#212121"/>
 <path d="m139.86 287.87c103.23 59.849 208.51 59.86 314.2 48.357-177.22-123.6-219.99-64.934-314.2-48.357z" fill="#ffb928"/>
 <path d="m189.76 362.81c-0.89985-0.0245-1.7443 1e-3 -2.5561 0.0549 19.178 44.106 41.485 68.197 85.222 76.341 1.8887-9.2577-0.74849-21.406-11.23-36.477-15.296-21.992-52.567-39.406-71.436-39.92z" fill="url(#c)"/>
 <path d="m345.08 75.701a96.142 111.04 0 0 0 -96.14 111.04 96.142 111.04 0 0 0 13.046 55.581h166.22a96.142 111.04 0 0 0 13.013 -55.581 96.142 111.04 0 0 0 -96.142 -111.04z" fill="#212121"/>
 <path d="m335.75 77.568a96.142 111.04 0 0 0 -96.142 111.04 96.142 111.04 0 0 0 12.124 53.715h168.14a96.142 111.04 0 0 0 12.025 -53.715 96.142 111.04 0 0 0 -96.142 -111.04z" fill="#fff"/>
 <path d="m184.23 75.701a96.142 111.04 0 0 0 -96.14 111.04 96.142 111.04 0 0 0 13.046 55.581h166.22a96.142 111.04 0 0 0 13.013 -55.581 96.142 111.04 0 0 0 -96.142 -111.04z" fill="#212121"/>
 <path d="m174.9 77.568a96.142 111.04 0 0 0 -96.142 111.04 96.142 111.04 0 0 0 12.124 53.715h168.14a96.142 111.04 0 0 0 12.025 -53.715 96.142 111.04 0 0 0 -96.142 -111.04z" fill="#fff"/>
 <g transform="translate(-31.46 -62.919)" fill="#212121">
  <circle cx="341.59" cy="181.64" r="36.939"/>
  <circle cx="180.74" cy="181.64" r="36.939"/>
 </g>
</svg>
